<?xml version="1.0"?>
<svg version="1.1" xmlns="http://www.w3.org/2000/svg" width="512px" height="200px" style=""><path fill="#000000" d="M43.8828125,165.95703125l0-78.525390625l16.650390625,0l0,64.775390625l31.8505859375,0l0,13.75l-48.5009765625,0z M111.59995117188,90.3857421875q0-8.0029296875,8.916015625-8.0029296875t8.916015625,8.0029296875q0,3.8134765625-2.22900390625,5.93505859375t-6.68701171875,2.12158203125q-8.916015625,0-8.916015625-8.056640625z M128.68002929688,165.95703125l-16.3818359375,0l0-60.048828125l16.3818359375,0l0,60.048828125z M186.83662109375,104.7802734375q10.634765625,0,16.650390625,8.29833984375t6.015625,22.74658203125q0,14.8779296875-6.20361328125,23.0419921875t-16.89208984375,8.1640625q-10.5810546875,0-16.5966796875-7.6806640625l-1.1279296875,0l-2.7392578125,6.6064453125l-12.5146484375,0l0-83.57421875l16.3818359375,0l0,19.443359375q0,3.7060546875-0.64453125,11.8701171875l0.64453125,0q5.7470703125-8.916015625,17.0263671875-8.916015625z M181.57294921875,117.8857421875q-6.0693359375,0-8.8623046875,3.73291015625t-2.900390625,12.32666015625l0,1.7724609375q0,9.66796875,2.87353515625,13.857421875t9.10400390625,4.189453125q5.048828125,0,8.02978515625-4.64599609375t2.98095703125-13.50830078125t-3.0078125-13.29345703125t-8.2177734375-4.43115234375z M264.11430664063,104.7802734375q3.330078125,0,5.5322265625,0.4833984375l-1.2353515625,15.361328125q-1.9873046875-0.537109375-4.833984375-0.537109375q-7.841796875,0-12.21923828125,4.0283203125t-4.37744140625,11.279296875l0,30.5615234375l-16.3818359375,0l0-60.048828125l12.4072265625,0l2.4169921875,10.09765625l0.8056640625,0q2.79296875-5.048828125,7.54638671875-8.13720703125t10.33935546875-3.08837890625z M326.2455078125,165.95703125l-3.1689453125-8.1640625l-0.4296875,0q-4.1357421875,5.2099609375-8.51318359375,7.22412109375t-11.41357421875,2.01416015625q-8.6474609375,0-13.61572265625-4.94140625t-4.96826171875-14.072265625q0-9.560546875,6.68701171875-14.09912109375t20.16845703125-5.02197265625l10.419921875-0.322265625l0-2.6318359375q0-9.130859375-9.345703125-9.130859375q-7.197265625,0-16.9189453125,4.3505859375l-5.4248046875-11.064453125q10.3662109375-5.4248046875,22.98828125-5.4248046875q12.0849609375,0,18.5302734375,5.263671875t6.4453125,16.005859375l0,40.0146484375l-11.4404296875,0z M321.4115234375,138.134765625l-6.337890625,0.21484375q-7.1435546875,0.21484375-10.634765625,2.578125t-3.4912109375,7.197265625q0,6.9287109375,7.94921875,6.9287109375q5.693359375,0,9.10400390625-3.2763671875t3.41064453125-8.701171875l0-4.94140625z M395.62768554688,104.7802734375q3.330078125,0,5.5322265625,0.4833984375l-1.2353515625,15.361328125q-1.9873046875-0.537109375-4.833984375-0.537109375q-7.841796875,0-12.21923828125,4.0283203125t-4.37744140625,11.279296875l0,30.5615234375l-16.3818359375,0l0-60.048828125l12.4072265625,0l2.4169921875,10.09765625l0.8056640625,0q2.79296875-5.048828125,7.54638671875-8.13720703125t10.33935546875-3.08837890625z M411.03037109375,105.908203125l17.939453125,0l11.3330078125,33.7841796875q1.4501953125,4.404296875,1.9873046875,10.419921875l0.322265625,0q0.5908203125-5.5322265625,2.3095703125-10.419921875l11.1181640625-33.7841796875l17.5634765625,0l-25.4052734375,67.7294921875q-3.4912109375,9.3994140625-9.96337890625,14.072265625t-15.11962890625,4.6728515625q-4.2431640625,0-8.3251953125-0.9130859375l0-12.998046875q2.9541015625,0.6982421875,6.4453125,0.6982421875q4.3505859375,0,7.60009765625-2.65869140625t5.07568359375-8.02978515625l0.966796875-2.9541015625z"/><path fill="#" d=""/></svg>
